<svg width="536" height="519" viewBox="0 0 536 519" fill="none" xmlns="http://www.w3.org/2000/svg">
<path opacity="0.0526316" d="M494.355 97.8772C483.046 82.8307 446.899 57.6522 392.789 77.3103C325.152 101.883 298.992 167.018 238.625 200.791C194.069 225.719 74.3461 263.136 5.50351 221.789" stroke="white" stroke-width="2.81119"/>
<path opacity="0.105263" d="M505.51 129.421C495.836 113.274 462.519 84.4555 406.65 98.3498C336.815 115.718 303.99 177.762 240.423 205.04C193.506 225.173 70.5277 249.871 6.3841 201.555" stroke="white" stroke-width="2.81119"/>
<path opacity="0.157895" d="M513.938 161.39C506.004 144.321 475.882 112.177 418.867 120.156C347.599 130.129 308.469 188.402 242.399 208.886C193.634 224.005 68.7476 235.713 10.0058 180.956" stroke="white" stroke-width="2.81119"/>
<path opacity="0.210526" d="M519.608 193.497C513.502 175.692 486.905 140.576 429.369 142.551C357.448 145.019 312.441 198.883 244.592 212.349C194.514 222.288 69.088 220.877 16.3916 160.281" stroke="white" stroke-width="2.81119"/>
<path opacity="0.263158" d="M522.522 225.453C518.31 207.108 495.53 169.404 438.102 165.354C366.317 160.291 315.927 209.155 247.042 215.455C196.199 220.105 71.6076 205.592 25.5339 139.819" stroke="white" stroke-width="2.81119"/>
<path opacity="0.315789" d="M522.709 256.971C520.438 238.286 501.724 198.407 445.034 188.377C374.172 175.839 318.95 219.168 249.783 218.233C198.733 217.542 76.3413 190.085 37.3951 119.857" stroke="white" stroke-width="2.81119"/>
<path opacity="0.368421" d="M520.232 287.769C519.927 268.948 505.483 227.332 450.152 211.431C380.989 191.554 321.54 228.873 252.85 220.714C202.152 214.691 83.3008 174.591 51.9089 100.676" stroke="white" stroke-width="2.81119"/>
<path opacity="0.421053" d="M515.18 317.571C516.843 298.821 506.828 255.923 453.463 234.325C386.756 207.328 323.732 238.229 256.272 222.934C206.481 211.645 92.4721 159.341 68.9784 82.5496" stroke="white" stroke-width="2.81119"/>
<path opacity="0.473684" d="M507.67 346.114C511.285 327.641 505.809 283.931 454.993 256.873C391.474 223.051 325.565 247.195 260.073 224.932C211.735 208.5 103.818 144.566 88.4798 65.7394" stroke="white" stroke-width="2.81119"/>
<path opacity="0.526316" d="M497.849 373.146C503.374 355.152 502.497 311.109 454.789 278.888C395.153 238.612 327.081 255.734 264.275 226.747C217.919 205.353 117.276 130.488 110.262 50.4904" stroke="white" stroke-width="2.81119"/>
<path opacity="0.578947" d="M485.886 398.438C493.262 381.121 496.993 337.227 452.914 300.196C397.815 253.906 328.327 263.819 268.894 228.426C225.029 202.303 132.763 117.329 134.149 37.0362" stroke="white" stroke-width="2.81119"/>
<path opacity="0.631579" d="M471.975 421.773C481.121 405.321 489.42 362.058 449.453 320.622C399.495 268.827 329.351 271.422 273.943 230.01C233.049 199.446 150.171 105.292 159.942 25.5842" stroke="#CCFF00" stroke-width="2.81119"/>
<path opacity="0.684211" d="M456.333 442.958C467.148 427.552 479.924 385.394 444.507 340.007C400.236 283.274 330.205 278.522 279.43 231.546C241.954 196.874 169.372 94.5734 187.421 16.3233" stroke="white" stroke-width="2.81119"/>
<path opacity="0.736842" d="M439.191 461.824C451.557 447.634 468.67 407.042 438.192 358.202C400.094 297.151 330.943 285.106 285.356 233.079C251.71 194.68 190.219 85.3527 216.349 9.418" stroke="white" stroke-width="2.81119"/>
<path opacity="0.789474" d="M420.802 478.228C434.584 465.407 455.846 426.827 430.64 375.068C399.132 310.37 331.619 291.162 291.721 234.656C262.273 192.95 212.546 77.7936 246.47 5.0062" stroke="white" stroke-width="2.81119"/>
<path opacity="0.842105" d="M401.43 492.051C416.477 480.741 441.655 444.595 421.997 390.485C397.424 322.847 332.289 296.688 298.516 236.321C273.588 191.765 236.171 72.0418 277.518 3.19919" stroke="white" stroke-width="2.81119"/>
<path opacity="0.894737" d="M381.35 503.207C397.496 493.532 426.315 460.215 412.42 404.346C395.052 334.511 333.008 301.687 305.73 238.119C285.597 191.202 260.899 68.2239 309.215 4.08027" stroke="white" stroke-width="2.81119"/>
<path opacity="0.947368" d="M360.843 511.634C377.912 503.7 410.056 473.578 402.078 416.564C392.105 345.295 333.832 306.165 313.347 240.095C298.228 191.33 286.52 66.4441 341.277 7.70231" stroke="white" stroke-width="2.81119"/>
<path d="M340.199 517.305C358.004 511.198 393.12 484.601 391.145 427.065C388.676 355.144 334.813 310.138 321.347 242.288C311.408 192.21 312.819 66.7843 373.415 14.0879" stroke="white" stroke-width="2.81119"/>
</svg>
