<svg width="26" height="26" viewBox="0 0 26 26" fill="none" xmlns="http://www.w3.org/2000/svg">
<g clip-path="url(#clip0_86_649)">
<g clip-path="url(#clip1_86_649)">
<path d="M13.2022 11.9007V18.3871M13.2022 18.3871C12.0076 18.3871 11.0401 19.3547 11.0401 20.5493C11.0401 21.7439 12.0076 22.7114 13.2022 22.7114C14.3968 22.7114 15.3644 21.7439 15.3644 20.5493C15.3644 19.3547 14.3968 18.3871 13.2022 18.3871ZM20.7697 22.7114C19.5751 22.7114 18.6076 21.7439 18.6076 20.5493C18.6076 19.3547 19.5751 18.3871 20.7697 18.3871C21.9643 18.3871 22.9319 19.3547 22.9319 20.5493C22.9319 21.7439 21.9643 22.7114 20.7697 22.7114ZM5.63471 22.7114C4.44013 22.7114 3.47257 21.7439 3.47257 20.5493C3.47257 19.3547 4.44013 18.3871 5.63471 18.3871C6.8293 18.3871 7.79686 19.3547 7.79686 20.5493C7.79686 21.7439 6.8293 22.7114 5.63471 22.7114Z" stroke="white" stroke-width="1.59948" stroke-linecap="round" stroke-linejoin="round"/>
<path d="M5.63489 18.3863V16.2242C5.63489 15.6274 6.11921 15.1431 6.71596 15.1431H19.6888C20.2856 15.1431 20.7699 15.6274 20.7699 16.2242V18.3863M5.63489 4.87293C5.63489 3.37997 9.02297 2.17025 13.2024 2.17025C17.3818 2.17025 20.7699 3.37997 20.7699 4.87293V9.19722C20.7699 10.6902 17.3818 11.8999 13.2024 11.8999C9.02297 11.8999 5.63489 10.6902 5.63489 9.19722V4.87293Z" stroke="white" stroke-width="1.59948" stroke-linecap="round" stroke-linejoin="round"/>
<path d="M20.7699 4.87315C20.7699 6.36611 17.3818 7.57583 13.2024 7.57583C9.02297 7.57583 5.63489 6.36611 5.63489 4.87315" stroke="white" stroke-width="1.59948" stroke-linecap="round" stroke-linejoin="round"/>
</g>
</g>
<defs>
<clipPath id="clip0_86_649">
<rect width="25.6452" height="25.6452" fill="white" transform="scale(1.01384)"/>
</clipPath>
<clipPath id="clip1_86_649">
<rect width="25.5916" height="25.5916" fill="white" transform="translate(0.229574 0.0079206) scale(1.01384)"/>
</clipPath>
</defs>
</svg>
