<svg width="27" height="27" viewBox="0 0 27 27" fill="none" xmlns="http://www.w3.org/2000/svg">
<g clip-path="url(#clip0_86_636)">
<path d="M16.875 3.37444H21.6967C22.761 3.37444 23.625 4.23844 23.625 5.30269V8.99943M23.6238 19.1244C23.6238 20.3675 21.861 21.3744 19.6863 21.3744C17.5117 21.3744 15.75 20.3664 15.75 19.1244M15.75 15.7494C15.75 16.9926 17.5128 17.9994 19.6875 17.9994C21.8621 17.9994 23.625 16.9926 23.625 15.7494" stroke="white" stroke-width="1.63211" stroke-linecap="round" stroke-linejoin="round"/>
<path d="M10.1247 23.6244H5.303C4.23876 23.6244 3.37476 22.7604 3.37476 21.6962V17.9994M15.7497 15.7494C15.7509 14.5074 17.5137 13.4994 19.6872 13.4994C21.8607 13.4994 23.6247 14.5063 23.6236 15.7494V22.4994C23.6236 23.7425 21.8607 24.7494 19.6861 24.7494C17.5115 24.7494 15.7497 23.7414 15.7497 22.4994V15.7494ZM12.0001 5.02819H8.83438C8.58575 5.02819 8.354 4.90556 8.2145 4.69969L7.535 3.70181C7.3955 3.49706 7.16375 3.37444 6.91513 3.37444H4.87438C4.04638 3.37444 3.37476 4.04606 3.37476 4.87406V10.8737C3.37476 11.7028 4.04638 12.3744 4.87438 12.3744H11.999C12.8281 12.3744 13.4997 11.7028 13.4997 10.8748V6.52781C13.4997 5.69981 12.8281 5.02819 12.0001 5.02819Z" stroke="white" stroke-width="1.63211" stroke-linecap="round" stroke-linejoin="round"/>
</g>
<defs>
<clipPath id="clip0_86_636">
<rect width="26.1137" height="26.1137" fill="white" transform="scale(1.03394)"/>
</clipPath>
</defs>
</svg>
