<svg width="47" height="47" viewBox="0 0 47 47" fill="none" xmlns="http://www.w3.org/2000/svg">
<g filter="url(#filter0_ii_86_619)">
<path d="M0 9.70072C0 4.34316 4.34316 0 9.70072 0H37.2993C42.6568 0 47 4.34316 47 9.70072V37.2993C47 42.6568 42.6568 47 37.2993 47H9.70072C4.34316 47 0 42.6568 0 37.2993V9.70072Z" fill="#2F7BBE"/>
<path d="M9.70117 0.979492H37.2988C42.1156 0.979492 46.0205 4.88439 46.0205 9.70117V37.2988C46.0205 42.1156 42.1156 46.0205 37.2988 46.0205H9.70117C4.88439 46.0205 0.979492 42.1156 0.979492 37.2988V9.70117C0.979492 4.88439 4.88439 0.979492 9.70117 0.979492Z" stroke="url(#paint0_linear_86_619)" stroke-width="1.95833"/>
<g clip-path="url(#clip0_86_619)">
<path d="M16.2137 26.5375C16.6572 26.5375 17.0167 26.8971 17.0167 27.3406C17.0167 27.7472 16.7146 28.0832 16.3226 28.1364L16.2136 28.1437L14.072 28.1436C13.6284 28.1436 13.2689 27.784 13.2689 27.3404C13.2689 26.9339 13.5711 26.5979 13.9631 26.5447L14.0721 26.5374L16.2137 26.5375ZM16.2138 22.7894C16.6573 22.7895 17.0168 23.1491 17.0167 23.5927C17.0167 23.9993 16.7145 24.3352 16.3225 24.3883L16.2135 24.3957L14.0721 24.3953C13.6285 24.3952 13.269 24.0356 13.2691 23.592C13.2692 23.1855 13.5714 22.8495 13.9634 22.7964L14.0724 22.7891L16.2138 22.7894ZM16.2136 19.0418C16.6572 19.0418 17.0167 19.4014 17.0167 19.8449C17.0167 20.2515 16.7146 20.5875 16.3226 20.6407L16.2136 20.648L14.0724 20.648C13.6288 20.6479 13.2693 20.2884 13.2693 19.8448C13.2693 19.4383 13.5715 19.1023 13.9635 19.0491L14.0724 19.0418L16.2136 19.0418ZM33.3465 19.0418C33.79 19.0418 34.1496 19.4014 34.1496 19.8449C34.1496 20.2515 33.8474 20.5875 33.4554 20.6407L33.3464 20.648L31.2048 20.648C30.7613 20.6479 30.4018 20.2884 30.4018 19.8448C30.4018 19.4383 30.7039 19.1023 31.0959 19.0491L31.2049 19.0418L33.3465 19.0418ZM33.3464 22.79C33.7899 22.7901 34.1495 23.1497 34.1494 23.5933C34.1493 23.9999 33.8471 24.3358 33.4551 24.3889L33.3461 24.3962L31.2047 24.3959C30.7612 24.3958 30.4017 24.0362 30.4018 23.5926C30.4018 23.1861 30.704 22.8501 31.096 22.797L31.205 22.7897L33.3464 22.79ZM33.3461 26.5374C33.7896 26.5374 34.1492 26.897 34.1492 27.3405C34.1492 27.7471 33.847 28.0831 33.455 28.1363L33.3461 28.1436L31.2048 28.1436C30.7613 28.1436 30.4018 27.784 30.4018 27.3405C30.4018 26.9339 30.7039 26.5979 31.0959 26.5447L31.2049 26.5374L33.3461 26.5374ZM19.9615 13.1523C20.3681 13.1523 20.7041 13.4545 20.7573 13.8465L20.7646 13.9555L20.7645 16.0971C20.7645 16.5406 20.405 16.9002 19.9614 16.9002C19.5548 16.9002 19.2188 16.598 19.1657 16.206L19.1583 16.097L19.1584 13.9554C19.1584 13.5119 19.518 13.1523 19.9615 13.1523ZM23.7099 13.1525C24.1164 13.1526 24.4524 13.4548 24.5055 13.8468L24.5128 13.9558L24.5125 16.0972C24.5124 16.5407 24.1528 16.9002 23.7092 16.9002C23.3026 16.9001 22.9667 16.5979 22.9136 16.2059L22.9063 16.0969L22.9066 13.9555C22.9067 13.512 23.2663 13.1525 23.7099 13.1525ZM27.4571 13.1527C27.8637 13.1527 28.1997 13.4549 28.2529 13.8469L28.2602 13.9559L28.2602 16.0971C28.2601 16.5406 27.9006 16.9002 27.457 16.9002C27.0505 16.9002 26.7144 16.598 26.6613 16.206L26.6539 16.097L26.654 13.9558C26.654 13.5123 27.0136 13.1527 27.4571 13.1527ZM27.4572 30.2852C27.8638 30.2852 28.1998 30.5873 28.2529 30.9793L28.2603 31.0883L28.2602 33.2299C28.2601 33.6735 27.9006 34.033 27.457 34.033C27.0504 34.033 26.7144 33.7308 26.6613 33.3388L26.6539 33.2298L26.6541 31.0882C26.6541 30.6447 27.0137 30.2852 27.4572 30.2852ZM23.7093 30.2852C24.1158 30.2852 24.4518 30.5874 24.5049 30.9794L24.5122 31.0884L24.5119 33.2298C24.5118 33.6734 24.1522 34.0329 23.7086 34.0328C23.302 34.0327 22.9661 33.7305 22.913 33.3385L22.9057 33.2296L22.906 31.0881C22.9061 30.6446 23.2657 30.2851 23.7093 30.2852ZM19.9615 30.2852C20.3681 30.2852 20.7041 30.5873 20.7573 30.9793L20.7646 31.0883L20.7645 33.2295C20.7645 33.6731 20.405 34.0326 19.9614 34.0326C19.5548 34.0326 19.2188 33.7305 19.1657 33.3385L19.1583 33.2295L19.1584 31.0883C19.1584 30.6447 19.518 30.2852 19.9615 30.2852Z" fill="white"/>
<path d="M26.9226 15.293H20.4977C17.6887 15.293 15.4114 17.5702 15.4114 20.3793V26.8041C15.4114 29.6132 17.6887 31.8904 20.4977 31.8904H26.9226C29.7317 31.8904 32.0089 29.6132 32.0089 26.8041V20.3793C32.0089 17.5702 29.7317 15.293 26.9226 15.293ZM20.4977 16.8992H26.9226C28.8446 16.8992 30.4027 18.4573 30.4027 20.3793V26.8041C30.4027 28.7261 28.8446 30.2842 26.9226 30.2842H20.4977C18.5757 30.2842 17.0176 28.7261 17.0176 26.8041V20.3793C17.0176 18.4573 18.5757 16.8992 20.4977 16.8992Z" fill="white"/>
<path d="M24.0061 24.2676C24.4497 24.2676 24.8092 24.6271 24.8092 25.0707C24.8092 25.4773 24.5071 25.8133 24.1151 25.8665L24.0061 25.8738H20.2109C19.7673 25.8738 19.4078 25.5142 19.4078 25.0707C19.4078 24.6641 19.7099 24.3281 20.1019 24.2749L20.2109 24.2676H24.0061Z" fill="white"/>
<path d="M22.7349 20.3262C23.0444 20.3262 23.3226 20.5035 23.456 20.7755L23.499 20.8818L25.0945 25.8075C25.2311 26.2294 24.9999 26.6823 24.5779 26.819C24.1911 26.9443 23.7784 26.7604 23.607 26.4039L23.5664 26.3024L22.1503 21.9324H22.0764L20.6613 26.3024C20.536 26.6892 20.1451 26.9158 19.7558 26.8456L19.6498 26.819C19.263 26.6937 19.0365 26.3027 19.1067 25.9134L19.1333 25.8075L20.7288 20.8818C20.8242 20.5874 21.0785 20.3774 21.3784 20.3343L21.4928 20.3262H22.7349ZM27.0396 20.3262C27.4461 20.3262 27.7822 20.6283 27.8353 21.0203L27.8427 21.1293V26.055C27.8427 26.4985 27.4831 26.8581 27.0396 26.8581C26.633 26.8581 26.297 26.5559 26.2438 26.1639L26.2365 26.055V21.1293C26.2365 20.6857 26.596 20.3262 27.0396 20.3262Z" fill="white"/>
</g>
</g>
<defs>
<filter id="filter0_ii_86_619" x="0" y="0" width="47" height="47" filterUnits="userSpaceOnUse" color-interpolation-filters="sRGB">
<feFlood flood-opacity="0" result="BackgroundImageFix"/>
<feBlend mode="normal" in="SourceGraphic" in2="BackgroundImageFix" result="shape"/>
<feColorMatrix in="SourceAlpha" type="matrix" values="0 0 0 0 0 0 0 0 0 0 0 0 0 0 0 0 0 0 127 0" result="hardAlpha"/>
<feOffset dy="-1.95833"/>
<feComposite in2="hardAlpha" operator="arithmetic" k2="-1" k3="1"/>
<feColorMatrix type="matrix" values="0 0 0 0 0.0392157 0 0 0 0 0.0496732 0 0 0 0 0.0705882 0 0 0 0.05 0"/>
<feBlend mode="normal" in2="shape" result="effect1_innerShadow_86_619"/>
<feColorMatrix in="SourceAlpha" type="matrix" values="0 0 0 0 0 0 0 0 0 0 0 0 0 0 0 0 0 0 127 0" result="hardAlpha"/>
<feMorphology radius="0.979167" operator="erode" in="SourceAlpha" result="effect2_innerShadow_86_619"/>
<feOffset/>
<feComposite in2="hardAlpha" operator="arithmetic" k2="-1" k3="1"/>
<feColorMatrix type="matrix" values="0 0 0 0 0.0392157 0 0 0 0 0.0496732 0 0 0 0 0.0705882 0 0 0 0.18 0"/>
<feBlend mode="normal" in2="effect1_innerShadow_86_619" result="effect2_innerShadow_86_619"/>
</filter>
<linearGradient id="paint0_linear_86_619" x1="23.5" y1="0" x2="23.5" y2="47" gradientUnits="userSpaceOnUse">
<stop stop-color="white" stop-opacity="0.12"/>
<stop offset="1" stop-color="white" stop-opacity="0"/>
</linearGradient>
<clipPath id="clip0_86_619">
<rect width="25.6993" height="25.6993" fill="white" transform="translate(10.8605 10.7422)"/>
</clipPath>
</defs>
</svg>
