<svg width="1216" height="54" viewBox="0 0 1216 54" fill="none" xmlns="http://www.w3.org/2000/svg">
<g clip-path="url(#clip0_86_560)">
<path d="M192.432 14.5111C189.096 16.4142 188.024 16.6521 184.45 18.7931L184.569 18.4363C186.475 16.4142 187.309 15.4627 188.5 13.6785C185.165 13.9164 180.281 14.2733 176.826 14.9869L177.065 14.6301C180.281 13.0838 186.118 11.5376 189.096 11.1807C188.381 10.1103 182.425 6.89881 180.996 6.30409L181.115 5.94727C185.642 6.42304 191.598 8.56401 194.099 10.1103C195.171 9.75343 196.363 9.75343 198.388 9.51555C198.388 9.51555 198.03 10.705 195.886 12.2512C196.482 13.6785 195.171 21.8856 193.98 24.0266C193.98 20.6962 193.742 16.4142 192.432 14.5111Z" fill="url(#paint0_linear_86_560)"/>
<path d="M168.011 43.7704L168.13 43.4136C166.343 42.7 164.557 42.2242 163.127 40.7969C163.604 39.4885 164.08 38.537 164.914 37.3475L165.033 36.9907C163.484 37.2286 162.174 37.8233 160.864 38.0612C159.792 36.277 159.434 33.7792 158.839 31.4004V31.6383C158.6 34.374 158.481 36.277 158.839 38.418C157.767 38.7748 156.814 38.7748 155.861 39.1317L155.741 39.4885C157.171 40.3211 158.243 41.0347 159.911 41.7484C160.745 43.5325 161.698 44.8409 163.127 46.2682L163.246 45.9114C163.008 44.8409 162.651 44.0083 162.77 42.8189C164.557 43.4136 165.986 43.6515 168.011 43.7704Z" fill="url(#paint1_linear_86_560)"/>
<path d="M173.014 16.6523C173.014 16.6523 172.3 17.9607 171.704 19.6259H171.585C175.754 20.2206 179.685 21.8858 180.638 22.4805L180.519 22.8374C176.231 22.1237 173.967 22.1237 172.3 22.3616C170.751 22.4805 170.394 22.7184 170.394 22.7184C169.441 24.7404 168.964 28.0708 168.726 29.2603L168.607 29.6171C167.773 27.714 166.701 23.9078 166.701 23.9078C164.557 25.0973 159.553 29.736 159.553 29.736C162.293 24.2647 165.152 21.7669 165.152 21.7669C164.199 20.8153 161.698 20.3396 159.792 20.2206L159.911 19.8638C161.102 19.507 163.484 19.388 165.033 19.2691C166.939 19.2691 168.011 19.2691 168.011 19.2691C169.56 17.9607 172.061 16.7713 173.014 16.6523Z" fill="url(#paint2_linear_86_560)"/>
<path d="M178.256 40.3213C177.422 41.5107 176.588 42.4622 175.635 43.5327C174.206 43.8896 172.538 43.7706 171.228 43.7706L171.108 44.1274C172.061 44.6032 173.014 44.96 174.086 45.1979C173.253 45.9116 172.181 46.5063 171.347 47.101L171.228 47.4578C172.895 47.101 175.159 46.3874 176.826 45.3169C177.66 45.3169 178.494 45.3169 179.09 45.1979L179.209 44.8411C179.09 44.4843 178.732 44.2464 178.613 43.6517C180.162 42.4622 181.234 41.3918 182.544 40.0834L182.783 39.7266C181.472 40.5592 179.924 41.8675 178.494 42.5812C178.375 41.7486 178.256 41.1539 178.256 40.3213Z" fill="url(#paint3_linear_86_560)"/>
<path d="M192.67 14.1543C189.334 16.0574 188.262 16.2953 184.689 18.4363C186.833 16.1763 187.547 15.2248 188.858 13.2028C185.522 13.3217 180.638 13.7975 177.184 14.5111C180.162 12.8459 186.237 11.0618 189.334 10.705C188.62 9.75343 182.663 6.66092 181.115 5.94727C185.761 6.30409 191.598 8.08823 194.338 9.75343C195.41 9.3966 196.601 9.3966 198.626 9.15872C198.149 10.1103 198.149 10.705 196.124 12.0133C196.72 13.4407 195.41 21.6477 194.218 23.7887C194.218 20.3393 193.861 16.0574 192.67 14.1543Z" fill="white"/>
<path d="M168.249 43.4134C166.343 42.6998 164.914 41.8672 163.484 40.4398C163.961 39.1315 164.437 38.1799 165.271 36.9905C163.723 37.2284 162.531 37.3473 161.221 37.7042C160.03 35.6821 159.553 33.779 159.077 31.2812C158.72 34.0169 158.72 35.92 159.077 38.061C157.886 38.4178 156.933 38.6557 155.98 39.1315C157.409 39.9641 158.6 40.6777 160.149 41.3914C160.983 43.1755 161.936 44.4839 163.365 45.9112C163.008 44.7218 162.889 43.7702 163.127 42.4619C164.676 43.0566 166.224 43.2945 168.249 43.4134Z" fill="white"/>
<path d="M173.253 16.2949C172.657 17.1275 171.942 18.5548 171.823 19.1495C176.707 19.8632 180.757 22.361 180.757 22.361C176.469 21.6473 174.206 21.6473 172.538 21.8852C170.989 22.0042 170.632 22.2421 170.632 22.2421C169.441 24.7399 168.726 29.1407 168.726 29.1407C167.892 27.2377 166.82 23.4315 166.82 23.4315C164.676 24.6209 159.673 29.2597 159.673 29.2597C162.412 23.7883 165.271 21.2905 165.271 21.2905C164.318 20.339 161.817 19.8632 159.911 19.7443C160.864 19.3874 163.365 18.9117 165.271 18.7927C167.177 18.7927 168.249 18.7927 168.249 18.7927C169.798 17.6033 172.3 16.4139 173.253 16.2949Z" fill="white"/>
<path d="M178.494 39.9644C177.66 41.1539 176.826 42.1054 175.873 43.1759C174.206 43.6517 172.895 43.7706 171.228 43.7706C172.181 44.2464 173.134 44.6032 174.206 44.8411C173.134 45.7926 172.3 46.3874 171.228 47.101C172.895 46.7442 175.159 46.0305 176.826 44.96C177.66 44.96 178.494 44.96 179.09 44.8411C178.971 44.3653 178.851 44.0085 178.732 43.2948C180.281 42.1054 181.472 41.0349 182.663 39.7266C181.234 40.6781 180.043 41.3918 178.494 42.1054C178.494 41.3918 178.494 40.797 178.494 39.9644Z" fill="white"/>
<path d="M224.833 19.7445C228.526 19.7445 229.836 20.4581 229.836 22.4802C229.836 23.0749 229.717 23.5507 229.36 23.9075C228.645 24.7401 227.335 25.2158 225.548 25.0969H225.429L224.357 27.7136H225.429C227.454 27.7136 229.241 28.3084 230.075 29.3788C230.432 29.8546 230.67 30.4493 230.67 31.044C230.67 33.0661 228.883 34.1366 225.31 34.1366C224.714 34.1366 223.761 34.1366 223.165 34.1366C223.046 31.4009 223.046 27.5947 223.046 26.5242C223.046 25.2158 223.165 22.3612 223.165 19.8634C223.523 19.7445 224.238 19.7445 224.833 19.7445ZM218.162 17.8414C218.281 19.7445 218.401 24.7401 218.401 26.5242C218.401 28.1894 218.401 33.7797 218.162 36.1586V36.3965H226.739C231.028 36.3965 235.554 35.0881 235.554 31.2819C235.554 28.9031 233.767 27.1189 230.551 26.1674C232.934 25.5727 234.601 23.9075 234.601 22.0044C234.601 18.9119 231.028 17.7225 227.692 17.6035H218.043L218.162 17.8414Z" fill="white"/>
<path d="M255.686 17.6035H251.398L251.517 22.3612C251.636 24.7401 251.636 27.1189 251.874 29.3788C251.636 28.6652 251.398 28.3084 250.087 26.4053C250.087 26.2863 245.68 19.5066 244.131 17.6035H239.247V17.8414C239.366 19.7445 239.485 24.7401 239.485 26.5242C239.485 28.1894 239.485 33.7797 239.247 36.1586V36.3965H243.655V36.1586C243.416 31.6388 243.416 27 243.416 22.4802C243.536 23.0749 243.774 23.4317 244.489 24.5022C244.489 24.6211 252.112 35.5639 252.47 36.2775V36.3965H256.044V36.1586C255.805 33.7797 255.805 28.1894 255.805 26.5242C255.805 24.7401 255.924 19.7445 256.044 17.8414V17.7225H255.686V17.6035Z" fill="white"/>
<path d="M267.241 19.8634C269.743 19.8634 271.411 20.3392 272.244 21.2907C272.602 21.7665 272.84 22.3612 272.84 22.9559C272.84 25.6916 269.743 26.2863 267.241 26.2863H266.169C266.169 26.2863 265.931 26.2863 265.693 26.2863C265.693 25.6916 265.693 24.859 265.693 23.9075C265.693 22.7181 265.693 21.2907 265.693 19.9824C266.05 19.9824 266.646 19.8634 267.241 19.8634ZM260.809 17.8414C260.928 19.7445 261.047 24.7401 261.047 26.5242C261.047 28.1894 261.047 33.7797 260.809 36.1586V36.3965H266.05V36.1586C265.931 34.3744 265.812 31.163 265.812 28.6652C266.05 28.6652 266.765 28.6652 266.765 28.6652H267.479C274.389 28.6652 277.724 26.881 277.724 23.0749C277.724 18.674 273.078 17.7225 269.147 17.6035H260.928V17.8414" fill="white"/>
<path d="M294.044 19.8634C296.546 19.8634 298.213 20.3392 299.047 21.2907C299.405 21.7665 299.643 22.3612 299.643 22.9559C299.643 25.6916 296.546 26.2863 294.044 26.2863H292.972C292.972 26.2863 292.734 26.2863 292.495 26.2863C292.495 25.6916 292.495 24.859 292.495 23.9075C292.495 22.7181 292.495 21.2907 292.495 19.9824C292.853 19.9824 293.448 19.8634 294.044 19.8634ZM287.611 17.8414C287.73 19.7445 287.85 24.7401 287.85 26.5242C287.85 28.1894 287.85 33.7797 287.611 36.1586V36.3965H292.853V36.1586C292.734 34.3744 292.615 31.163 292.615 28.6652C292.853 28.6652 293.568 28.6652 293.568 28.6652H294.282C301.191 28.6652 304.527 26.881 304.527 23.0749C304.527 18.674 299.762 17.7225 295.831 17.6035H287.611V17.8414Z" fill="white"/>
<path d="M312.746 23.1938C313.104 24.1454 314.295 26.5242 315.486 29.4978C315.248 29.4978 315.01 29.4978 315.01 29.4978H312.746C312.746 29.4978 310.364 29.4978 310.007 29.4978C310.96 27.1189 311.913 24.978 312.746 23.1938ZM311.436 17.6035C310.364 20.3392 304.05 34.0176 303.097 36.1586L302.978 36.3965H307.386V36.2775C307.743 34.9691 308.339 33.5418 308.935 31.9956C309.173 31.9956 312.627 31.9956 312.627 31.9956H315.725C315.725 31.9956 316.201 31.9956 316.32 31.9956C317.154 34.0176 317.75 35.5639 317.988 36.2775V36.3965H323.11L314.772 17.6035H314.891H311.436Z" fill="white"/>
<path d="M325.374 17.8414C325.493 19.7445 325.612 24.7401 325.612 26.5242C325.612 28.1894 325.612 33.7797 325.374 36.1586V36.3965H330.615V36.1586C330.377 33.7797 330.258 28.1894 330.258 26.5242C330.258 25.2158 330.258 22.3612 330.377 19.9824C330.734 19.9824 331.33 19.8634 331.806 19.8634C334.189 19.8634 335.976 20.3392 336.809 21.2907C337.167 21.7665 337.405 22.3612 337.405 22.9559C337.405 25.0969 335.38 26.1674 333.474 26.2863C332.878 26.2863 332.402 26.2863 332.402 26.2863L332.044 26.1674L332.283 26.5242C334.189 29.2599 336.929 33.8987 338.12 36.1586V36.2775H343.719L343.599 36.0396C343.361 35.6828 339.668 30.3304 338.12 28.0705L338.001 27.9515C340.86 27.1189 342.289 25.4537 342.289 23.0749C342.289 18.7929 337.643 17.7225 333.593 17.6035H325.374V17.8414Z" fill="white"/>
<path d="M351.104 17.6035H346.101V17.7225C346.22 19.6255 346.339 24.6211 346.339 26.4053C346.339 28.0705 346.339 33.6608 346.101 36.0396V36.2775H351.343V36.0396C351.104 33.6608 351.104 28.0705 351.104 26.4053C351.104 24.6211 351.223 19.6255 351.343 17.7225V17.6035H351.104Z" fill="white"/>
<path d="M362.659 19.7445C366.352 19.7445 367.662 20.4581 367.662 22.4802C367.662 23.0749 367.543 23.5507 367.186 23.9075C366.471 24.7401 365.161 25.2158 363.374 25.0969H363.255L362.302 27.7136H363.255C365.28 27.7136 366.948 28.3084 367.901 29.3788C368.377 29.8546 368.496 30.4493 368.496 31.044C368.496 33.0661 366.709 34.1366 363.017 34.1366C362.421 34.1366 361.468 34.1366 360.872 34.1366C360.753 31.4009 360.753 27.5947 360.753 26.5242C360.753 25.2158 360.753 22.3612 360.872 19.8634C361.349 19.7445 362.064 19.7445 362.659 19.7445ZM355.988 17.8414C356.107 19.7445 356.227 24.7401 356.227 26.5242C356.227 28.1894 356.227 33.7797 355.988 36.1586V36.3965H364.684C368.973 36.3965 373.5 35.0881 373.5 31.2819C373.5 28.9031 371.713 27.1189 368.496 26.1674C370.879 25.5727 372.547 23.9075 372.547 22.0044C372.547 18.9119 368.973 17.7225 365.637 17.6035H355.988V17.8414Z" fill="white"/>
<path d="M384.102 23.0749C384.578 23.9075 385.65 26.4053 386.841 29.3788C386.603 29.3788 386.484 29.3788 386.484 29.3788H384.221C384.221 29.3788 381.838 29.3788 381.481 29.3788C382.315 27.1189 383.268 24.978 384.102 23.0749ZM386.246 17.6035H382.791V17.7225C381.719 20.5771 375.167 34.9691 374.572 36.1586L374.453 36.3965H378.979V36.2775C379.337 34.9691 379.813 33.5418 380.409 31.9956C380.528 31.9956 384.102 31.9956 384.102 31.9956H387.199H387.794C388.628 34.0176 389.224 35.5639 389.462 36.2775V36.3965H394.584L386.246 17.6035Z" fill="white"/>
<path d="M396.252 22.4805C396.252 25.8109 399.588 27.1193 402.447 28.3087C404.71 29.2603 407.092 30.2118 407.092 31.7581C407.092 32.2338 406.973 32.5907 406.735 32.9475C406.139 33.5422 405.067 33.899 403.28 33.7801C401.494 33.6612 399.588 33.1854 397.324 32.1149L396.49 31.6391V32.3528V35.6832L397.086 35.8021H397.443C398.516 36.04 400.66 36.5158 402.685 36.5158C408.165 36.5158 411.5 34.3748 411.5 30.6876C411.5 27.2382 408.165 25.9299 405.067 24.7404C402.804 23.7889 400.541 22.9563 400.541 21.529C400.541 21.0532 400.541 19.8638 403.4 19.8638C405.544 19.8638 407.569 20.6964 408.76 21.1722L409.832 21.6479V20.9343V17.4849L408.76 17.2471C407.688 17.0092 405.901 16.6523 404.114 16.6523C399.349 16.8902 396.252 19.1501 396.252 22.4805Z" fill="white"/>
</g>
<g clip-path="url(#clip1_86_560)">
<path fill-rule="evenodd" clip-rule="evenodd" d="M637.297 31.6136C641.923 31.6136 645.438 27.8363 645.5 23.3778C645.192 21.4582 644.513 17.8047 639.456 17.8047C633.967 17.8047 632.117 25.5451 627.615 30.499C627.245 33.3475 624.593 35.8864 621.262 36.3198C622.064 37.1868 623.914 37.6202 626.073 37.6202C630.02 37.6202 634.892 36.4437 637.359 33.9048C634.029 33.9667 631.87 31.7994 631.623 28.7652C633.289 30.8706 635.139 31.6136 637.297 31.6136Z" fill="#D1D1D1"/>
<path fill-rule="evenodd" clip-rule="evenodd" d="M601.958 19.3524C601.958 16.8755 601.835 15.2655 600.231 15.2655C599.491 15.2655 599.121 15.3893 598.504 15.637C599.059 23.9348 597.209 31.2418 594.927 31.2418C591.905 31.2418 593.447 13.4697 587.095 13.4697C581.236 13.4697 580.434 27.6502 579.756 27.6502C579.324 27.6502 579.262 23.9348 579.262 21.0863C579.509 19.724 579.632 18.4855 579.632 17.5567C579.632 16.2563 579.077 13.9651 576.117 15.0797C576.24 25.2352 574.205 31.3656 571.923 31.3656C568.593 31.3656 568.531 22.139 568.531 19.6001C568.531 17.1232 568.716 13.7793 565.015 15.0178C564.46 23.8729 562.178 30.5606 560.698 30.5606C558.54 30.5606 558.971 15.2655 554.284 15.2655C550.029 15.2655 548.733 29.7556 547.87 29.7556C546.267 29.7556 548.363 13.4078 542.258 13.4078C539.051 13.4078 537.756 18.857 536.522 24.9875C536.275 26.164 536.029 26.226 535.967 24.8636C535.905 23.749 535.905 22.5725 535.967 21.4578C537.509 15.3274 535.597 13.0362 532.822 14.7082C533.747 26.0402 528.566 31.5514 524.619 31.5514C523.2 31.5514 522.029 30.9321 521.227 29.9414C525.976 27.031 528.073 23.6252 528.073 20.3432C528.073 16.7516 526.037 14.7082 522.645 14.7082C517.896 14.7082 515.306 19.6001 515.306 23.749C515.306 25.9783 515.738 27.8979 516.416 29.446C514.813 30.251 513.271 30.8702 511.852 31.5514C511.729 27.2787 511.236 22.8202 510.866 18.6713C508.337 17.9901 507.597 19.1667 507.412 21.4578C506.98 26.5975 505.068 29.7556 503.403 29.7556C502.17 29.7556 501.368 28.2075 501.306 26.5975C500.813 18.3617 507.474 16.0705 510.927 17.309C511.667 15.5132 510.866 14.2128 507.72 14.2128C503.896 14.2128 501.059 16.504 499.024 19.4763C497.606 21.4578 496.002 22.8821 493.905 24.554C493.967 24.0586 493.967 23.5632 493.967 23.0679C493.967 17.247 490.822 14.7082 487.861 14.7082C485.394 14.7082 483.852 16.1943 482.927 18.4855C482.681 16.1943 482.249 15.2036 480.954 15.2036C480.399 15.2036 479.597 15.3893 478.733 15.7609C479.104 17.0613 479.289 19.8478 479.289 21.7055C479.289 28.7029 477.315 31.7991 475.403 31.7991C473.244 31.7991 472.874 23.5632 472.689 20.3432C472.319 20.2194 472.011 20.1574 471.641 20.1574C469.667 20.1574 469.421 22.8202 468.927 25.2971C468.372 28.0217 466.83 31.4275 464.548 31.4275C463.13 31.4275 462.267 30.0652 462.205 27.6502C461.958 22.6963 466.09 16.8755 472.443 18.7332C473.306 16.7516 471.949 15.2655 469.297 15.2655C464.61 15.2655 460.786 18.7951 459.059 22.944C457.333 26.7213 454.372 32.3564 448.267 32.3564C443.949 32.3564 440.681 28.5791 440.681 20.7148C440.434 13.8412 444.751 7.40119 449.315 7.40119C452.522 7.40119 453.262 10.5593 452.954 13.5316C454.619 14.8939 457.333 13.6555 457.333 10.3116C457.333 8.02042 455.482 4.11924 449.5 4.11924C442.037 4.05731 435.5 11.4881 435.5 21.2721C435.5 30.6845 440.249 36.2576 447.033 36.2576C451.289 36.2576 455.297 33.8426 458.073 29.3221C458.751 33.2852 461.465 34.8953 463.438 34.8953C466.707 34.8953 468.804 32.7899 469.976 29.9414C470.716 32.7899 472.196 34.8953 474.725 34.8953C476.513 34.8953 477.932 33.9664 478.98 32.5422C478.548 42.5119 478.055 48.8281 483.914 47.5896C482.989 44.7411 482.742 39.6014 482.742 35.0191C482.742 22.3867 484.839 18.2378 487.43 18.2378C489.341 18.2378 489.958 20.6528 489.958 23.2536C489.958 24.6159 489.835 26.226 489.465 27.6502C486.258 29.6937 483.729 31.3037 483.729 33.2852C483.729 34.8953 484.901 35.0191 485.949 35.0191C488.416 35.0191 491.377 32.6041 492.98 28.0217C494.399 27.1548 495.817 26.164 497.236 24.8017C497.174 25.2352 497.174 25.7306 497.174 26.226C497.174 30.7464 499.148 33.471 502.293 33.471C504.76 33.471 506.61 31.7372 507.905 29.0744C507.967 30.6225 508.029 31.9848 508.09 33.2852C503.095 35.6383 497.544 37.9914 497.544 44.5553C497.544 47.9611 500.011 50.5 503.156 50.5C510.126 50.5 511.729 43.0692 511.791 34.4618C514.073 33.471 515.738 32.7279 517.711 31.7372C519.377 33.8426 521.659 34.8953 523.756 34.8953C527.703 34.8953 530.663 32.7899 533.068 28.5171C533.5 31.7372 534.302 34.8953 536.029 34.8953C539.174 34.8953 539.791 18.4855 542.134 18.4855C543.923 18.4855 542.443 36.2576 547.13 36.2576C551.139 36.2576 551.941 20.6528 553.852 20.6528C555.271 20.6528 555.333 34.9572 559.711 34.9572C561.87 34.9572 564.214 32.3564 565.385 26.9071C565.941 30.5606 567.729 34.9572 571.306 34.9572C573.403 34.9572 575.192 32.8518 576.548 30.0652C576.919 32.9756 577.72 34.9572 579.324 34.9572C583.394 34.9572 583.271 18.5474 586.54 18.5474C589.068 18.5474 588.267 34.9572 594.311 34.9572C597.148 34.9572 598.504 32.4802 599.368 29.446C600.478 33.9664 602.267 34.9572 603.747 34.9572C604.672 34.9572 605.412 34.6476 606.337 33.5329C601.526 31.4895 601.958 24.1206 601.958 19.3524ZM503.341 47.4657C501.923 47.4657 501.121 46.1034 501.121 44.5553C501.121 40.3445 504.205 38.1153 507.967 36.1957C507.844 45.3603 505.685 47.4657 503.341 47.4657ZM522.152 17.6805C523.57 17.6805 524.372 18.9809 524.249 20.8386C524.064 23.0059 522.522 25.5448 519.747 27.5264C518.267 23.3775 519.377 17.6805 522.152 17.6805ZM566.742 11.4881C568.099 11.4262 569.024 10.3116 569.024 8.88735C569.024 7.52503 568.099 6.41041 566.742 6.47233C565.385 6.53426 564.337 7.64888 564.275 9.07312C564.337 10.4354 565.447 11.5501 566.742 11.4881ZM600.108 12.1693C601.341 12.1074 602.328 11.0547 602.328 9.69236C602.328 8.39196 601.341 7.33926 600.108 7.40119C598.874 7.46311 597.888 8.51581 597.888 9.87813C597.949 11.1785 598.936 12.2312 600.108 12.1693ZM645.5 23.0679C645.377 17.8663 642.91 13.4697 639.148 10.002C636.249 7.33926 632.857 5.35771 629.28 3.87154C628.971 3.74769 628.725 3.62385 628.416 3.5C623.976 8.82543 608.681 12.7885 608.681 23.9348C608.681 28.2694 611.394 32.3564 615.465 33.9664C617.808 34.8333 620.152 34.8953 622.434 34.0903C624.531 33.4091 626.196 32.1087 627.615 30.5606C632.117 25.5448 633.905 17.8663 639.456 17.8663C644.513 17.8663 645.192 21.4578 645.5 23.4394C645.5 23.3775 645.5 23.2536 645.5 23.0679Z" fill="white"/>
</g>
<g clip-path="url(#clip2_86_560)">
<path d="M741.899 22.4083C741.899 17.0917 738.425 13.0639 731.233 13.0639H716.77V40.8556H723.557V19.1056H731.233C734.062 19.1056 735.112 20.7167 735.112 22.5694C735.112 24.5028 734.062 26.0333 731.233 26.0333H724.688L734.062 40.8556H741.819C741.819 40.8556 735.435 30.8667 735.516 30.8667C739.394 29.9806 741.899 27.2417 741.899 22.4083ZM705.457 13.0639H712.245V40.8556H705.457V13.0639ZM683.721 13.0639L669.5 40.9361H677.176L679.439 36.2639H690.913L688.085 30.3833H682.348L686.549 21.8444H686.63L696.165 40.9361H704.003L689.782 13.0639H683.721ZM766.706 26.4361C768.888 25.2278 770.019 23.375 770.019 20.5556C770.019 16.0444 766.625 13.0639 761.05 13.0639H745.131V40.8556H761.615C767.352 40.8556 771.15 37.7944 771.15 33.0417C771.231 29.8194 769.372 27.4028 766.706 26.4361ZM751.919 18.9444H760.969C762.343 18.9444 763.393 19.9917 763.393 21.3611C763.393 22.7306 762.343 23.7778 760.969 23.7778H751.919V18.9444ZM761.211 35.0556H751.919V29.4167H761.211C762.827 29.4167 764.12 30.625 764.12 32.2361C764.12 33.8472 762.827 35.0556 761.211 35.0556ZM792.644 28.6111C792.644 32.8 790.704 35.1361 786.826 35.1361C783.028 35.1361 781.089 32.8 781.089 28.6111V13.0639H774.14V28.1278C774.14 36.7472 778.665 41.5 786.907 41.5C795.148 41.5 799.673 36.7472 799.673 28.1278V13.0639H792.724V28.6111H792.644ZM817.773 24.1806C811.309 22.65 809.935 22.4889 809.935 20.6361C809.935 19.1861 811.551 18.5417 814.299 18.5417C817.935 18.5417 821.733 19.4278 823.914 20.7972L826.096 15.1583C823.187 13.5472 819.147 12.5 814.299 12.5C807.107 12.5 803.067 16.0444 803.067 20.8778C803.067 26.0333 806.057 28.1278 813.006 29.5778C818.42 30.7861 819.551 31.5111 819.551 33.0417C819.551 34.6528 818.096 35.3778 815.107 35.3778C810.824 35.3778 807.027 34.3306 803.956 32.6389L801.855 38.6C805.249 40.3722 810.259 41.5 815.268 41.5C822.298 41.5 826.5 38.2778 826.5 32.8C826.581 28.3694 823.753 25.55 817.773 24.1806Z" fill="white"/>
</g>
<path d="M1064.31 37.8673L1060.23 33.7842L1056.15 37.8673L1060.23 41.9505L1064.31 37.8673ZM1062.65 8.43462C1062.44 7.45637 1060.23 8.85995 1055.59 13.0707C1057.47 15.1548 1058.36 13.9639 1059.89 13.411C1061.08 15.7077 1061.55 26.0857 1053.72 29.1481C1053.94 18.685 1054.06 7.54143 1054.06 7.54143C1054.06 7.20117 1053.85 7.20117 1053.64 7.20117C1051.55 7.54143 1047.68 11.2843 1044.71 14.4743C1046.37 17.1113 1048.32 14.6869 1049.98 14.049C1049.98 14.4743 1049.64 22.2153 1049.77 30.0413C1041.73 30.7218 1043.05 14.0915 1043.48 11.9648C1043.69 10.221 1038.29 14.049 1035.65 16.4733C1036.54 18.0045 1037.65 17.6642 1039.18 17.1538C1038.63 24.5546 1043.82 31.3598 1049.85 31.1471C1050.07 38.7605 1050.83 46.2463 1053.04 46.7992C1053.38 46.9268 1053.6 39.1008 1053.72 30.3815C1068.18 25.8731 1062.65 8.43462 1062.65 8.43462ZM886.048 35.3579V13.5386H880.35V35.5705C880.35 40.2917 882.646 42.8437 888.174 42.8437H891.661V38.6754H889.365C886.941 38.6329 886.048 37.8673 886.048 35.3579ZM971.778 13.8363L963.401 35.9959L955.023 13.8363H946.858V42.8011H952.599V25.5328C952.599 24.427 952.599 22.5555 952.472 21.3646H952.684L960.722 42.8437H965.995L974.159 21.3646H974.287C974.159 22.5555 974.159 24.4695 974.159 25.5328V42.8437H979.9V13.8363H971.778ZM902.93 43.1839C910.074 43.1839 913.604 40.632 913.604 33.8267V20.6841H907.863V33.6991C907.863 37.6547 905.439 39.1008 902.803 39.1008C900.166 39.1008 897.742 37.6547 897.742 33.6991V20.6841H892.001V33.7842C892.129 40.632 895.744 43.1839 902.93 43.1839ZM922.322 33.6991V29.7436C922.322 25.788 925.426 24.3419 928.062 24.3419C930.699 24.3419 933.803 25.788 933.803 29.7436V33.6991C933.803 37.6547 930.699 39.1008 928.062 39.1008C925.383 39.1858 922.322 37.6547 922.322 33.6991ZM939.161 29.8286C939.161 24.427 936.057 20.3438 928.785 20.3438C926.574 20.3438 924.278 20.8967 922.407 21.7899V13.5386H916.666V33.6991C916.666 40.5469 920.748 43.0563 927.892 43.0563C935.037 43.0563 939.119 40.2066 939.119 33.3588C939.161 33.3588 939.161 29.8286 939.161 29.8286ZM1024.08 29.701V33.6566C1024.08 37.6121 1020.98 39.0582 1018.34 39.0582C1015.71 39.0582 1012.6 37.6121 1012.6 33.6566V29.701C1012.6 25.7455 1015.71 24.2994 1018.34 24.2994C1021.02 24.3419 1024.08 25.8731 1024.08 29.701ZM1017.7 20.3438C1010.43 20.3438 1007.33 24.427 1007.33 29.8286V33.3588C1007.33 40.2066 1011.41 43.0563 1018.56 43.0563C1025.7 43.0563 1029.78 40.5044 1029.78 33.6991V13.5386H1024.17V21.7899C1022.21 20.8967 1019.92 20.3438 1017.7 20.3438ZM988.065 29.8286C988.065 25.7455 991.169 24.2143 993.806 24.2143C996.442 24.2143 999.547 25.7455 999.547 29.8286H988.065ZM1000.95 36.9741C998.526 38.6329 996.783 39.1858 994.019 39.1858C990.702 39.1858 987.98 37.3144 987.98 33.7842V33.3588H1004.95V31.4874C1004.95 24.6396 1000.87 20.3438 993.721 20.3438C986.577 20.3438 982.452 24.6396 982.452 31.4874V32.3806C982.452 38.9732 986.407 43.1839 994.019 43.1839C997.888 43.1839 1001.16 42.4183 1004.48 39.7813L1000.95 36.9741ZM865.253 43.1839C872.738 43.1839 877.373 39.3134 878.351 34.167H872.27C871.292 37.5696 868.74 39.2284 865.126 39.2284C859.512 39.2284 857.429 35.4855 857.429 29.7436V26.8939C857.429 20.5139 860.193 17.5366 865.126 17.5366C868.655 17.5366 871.164 19.0678 872.27 22.598H878.308C877.203 17.409 872.695 13.5811 865.211 13.5811C856.663 13.5386 851.688 18.685 851.688 26.7663V30.7218C851.688 38.3352 856.408 43.1839 865.253 43.1839Z" fill="white"/>
<defs>
<linearGradient id="paint0_linear_86_560" x1="187.695" y1="47.0575" x2="187.695" y2="5.64694" gradientUnits="userSpaceOnUse">
<stop stop-color="#00B387"/>
<stop offset="1" stop-color="#00A76D"/>
</linearGradient>
<linearGradient id="paint1_linear_86_560" x1="161.963" y1="47.0591" x2="161.963" y2="5.63608" gradientUnits="userSpaceOnUse">
<stop stop-color="#00B387"/>
<stop offset="1" stop-color="#00A76D"/>
</linearGradient>
<linearGradient id="paint2_linear_86_560" x1="169.979" y1="47.0507" x2="169.979" y2="5.6549" gradientUnits="userSpaceOnUse">
<stop stop-color="#00B387"/>
<stop offset="1" stop-color="#00A76D"/>
</linearGradient>
<linearGradient id="paint3_linear_86_560" x1="176.909" y1="47.0558" x2="176.909" y2="5.64578" gradientUnits="userSpaceOnUse">
<stop stop-color="#00B387"/>
<stop offset="1" stop-color="#00A76D"/>
</linearGradient>
<clipPath id="clip0_86_560">
<rect width="261" height="54" fill="white" transform="translate(150.5)"/>
</clipPath>
<clipPath id="clip1_86_560">
<rect width="210" height="47" fill="white" transform="translate(435.5 3.5)"/>
</clipPath>
<clipPath id="clip2_86_560">
<rect width="157" height="29" fill="white" transform="translate(669.5 12.5)"/>
</clipPath>
</defs>
</svg>
